<?xml version="1.0" encoding="UTF-8" standalone="no"?>
<!-- Created with Inkscape (http://www.inkscape.org/) -->

<svg
   xmlns:dc="http://purl.org/dc/elements/1.1/"
   xmlns:cc="http://creativecommons.org/ns#"
   xmlns:rdf="http://www.w3.org/1999/02/22-rdf-syntax-ns#"
   xmlns:svg="http://www.w3.org/2000/svg"
   xmlns="http://www.w3.org/2000/svg"
   xmlns:sodipodi="http://sodipodi.sourceforge.net/DTD/sodipodi-0.dtd"
   xmlns:inkscape="http://www.inkscape.org/namespaces/inkscape"
   width="320"
   height="320"
   viewBox="0 0 84.666667 84.666667"
   version="1.1"
   id="svg821"
   inkscape:version="0.92.2 (5c3e80d, 2017-08-06)"
   sodipodi:docname="test4.svg">
  <defs
     id="defs815">
    <filter
       style="color-interpolation-filters:sRGB;"
       inkscape:label="Drop Shadow"
       id="filter1526">
      <feFlood
         flood-opacity="0.498039"
         flood-color="rgb(0,0,0)"
         result="flood"
         id="feFlood1516" />
      <feComposite
         in="flood"
         in2="SourceGraphic"
         operator="in"
         result="composite1"
         id="feComposite1518" />
      <feGaussianBlur
         in="composite1"
         stdDeviation="2"
         result="blur"
         id="feGaussianBlur1520" />
      <feOffset
         dx="0"
         dy="1.5"
         result="offset"
         id="feOffset1522" />
      <feComposite
         in="SourceGraphic"
         in2="offset"
         operator="over"
         result="composite2"
         id="feComposite1524" />
    </filter>
  </defs>
  <sodipodi:namedview
     id="base"
     pagecolor="#ffffff"
     bordercolor="#666666"
     borderopacity="1.0"
     inkscape:pageopacity="0.0"
     inkscape:pageshadow="2"
     inkscape:zoom="4"
     inkscape:cx="181.43752"
     inkscape:cy="177.07584"
     inkscape:document-units="mm"
     inkscape:current-layer="layer4"
     showgrid="false"
     units="px"
     width="320px"
     showguides="true"
     inkscape:window-width="1920"
     inkscape:window-height="1002"
     inkscape:window-x="-9"
     inkscape:window-y="-9"
     inkscape:window-maximized="1"
     inkscape:guide-bbox="true">
    <sodipodi:guide
       position="-0.13229167,72.23125"
       orientation="1,0"
       id="guide852"
       inkscape:locked="false" />
    <sodipodi:guide
       position="87.973959,-0.26458333"
       orientation="0,1"
       id="guide854"
       inkscape:locked="false" />
    <sodipodi:guide
       position="84.666667,56.885417"
       orientation="1,0"
       id="guide856"
       inkscape:locked="false" />
    <sodipodi:guide
       position="87.841667,84.534375"
       orientation="0,1"
       id="guide858"
       inkscape:locked="false" />
    <sodipodi:guide
       position="42.994792,35.057292"
       orientation="1,0"
       id="guide860"
       inkscape:locked="false" />
    <sodipodi:guide
       position="49.873959,40.216667"
       orientation="0,1"
       id="guide862"
       inkscape:locked="false" />
  </sodipodi:namedview>
  <metadata
     id="metadata818">
    <rdf:RDF>
      <cc:Work
         rdf:about="">
        <dc:format>image/svg+xml</dc:format>
        <dc:type
           rdf:resource="http://purl.org/dc/dcmitype/StillImage" />
        <dc:title></dc:title>
      </cc:Work>
    </rdf:RDF>
  </metadata>
  <g
     inkscape:groupmode="layer"
     id="layer4"
     inkscape:label="Layer 3"
     style="display:inline">
    <path
       style="fill:none;stroke:#000000;stroke-width:0.26458332px;stroke-linecap:butt;stroke-linejoin:miter;stroke-opacity:1"
       d="m 36.115625,32.676041 c -0.932559,-0.09812 -2.011942,0.103862 -2.910417,0.198438"
       id="path8409"
       inkscape:connector-curvature="0" />
    <path
       style="fill:none;stroke:#000000;stroke-width:0.26458332px;stroke-linecap:butt;stroke-linejoin:miter;stroke-opacity:1"
       d="m 33.205208,32.874479 c 1.748835,-2.568602 3.420546,-5.640792 4.530989,-8.598958 0.766848,3.254891 3.310931,5.955726 4.703654,7.371563"
       id="path8413"
       inkscape:connector-curvature="0" />
    <path
       style="fill:none;stroke:#000000;stroke-width:0.26458332px;stroke-linecap:butt;stroke-linejoin:miter;stroke-opacity:1"
       d="m 42.439851,31.647085 c -0.835252,0.365336 -1.905627,0.505555 -2.586987,0.665154"
       id="path8419"
       inkscape:connector-curvature="0" />
    <path
       style="fill:none;stroke:#000000;stroke-width:0.26458332px;stroke-linecap:butt;stroke-linejoin:miter;stroke-opacity:1"
       d="m 39.852864,32.312239 c 0.839438,1.118092 1.440611,2.353744 1.984375,3.389974 1.661713,-3.439106 2.424285,-7.989217 3.613354,-11.869186 -0.822575,-0.315639 -1.941214,-0.8574 -2.455801,-1.10515"
       id="path8421"
       inkscape:connector-curvature="0" />
    <path
       style="fill:none;stroke:#000000;stroke-width:0.26458332px;stroke-linecap:butt;stroke-linejoin:miter;stroke-opacity:1"
       d="m 42.994791,22.727877 c 2.1531,-1.868852 4.33147,-4.450599 5.705078,-6.836341 0.567548,2.793724 2.085499,5.238859 3.307293,7.590235 -0.953605,0.36122 -2.832972,0.460532 -3.323575,0.500386 -1.106356,5.636955 -2.72349,11.042997 -4.49817,16.002999 5.861289,9.152558 14.079423,14.945656 24.804686,18.620052 -0.967891,1.667482 -2.383283,2.689555 -3.753775,3.687631 C 53.807131,59.938237 46.117783,49.962865 42.316596,44.06413 38.19322,50.997228 32.104678,56.29379 25.056089,60.403387 22.502705,60.398887 19.256973,60.300594 17.264424,60.018609 26.949839,55.00583 34.940253,49.463625 39.908636,39.810105 38.46429,37.568243 37.160179,34.516276 36.115625,32.676041"
       id="path8423"
       inkscape:connector-curvature="0"
       sodipodi:nodetypes="ccccccccccc" />
    <path
       style="opacity:1;fill:#f2f2f2;fill-opacity:0.9807692;stroke:none;stroke-width:0.17677669"
       d="m 242.71979,233.94248 c -8.73758,-2.25228 -16.69686,-5.4408 -24.5983,-9.85419 -20.34744,-11.36515 -39.20448,-29.97275 -55.90553,-55.16602 -1.20547,-1.81842 -2.23962,-3.30582 -2.2981,-3.30531 -0.0585,5.3e-4 -0.57775,0.77611 -1.15391,1.72357 -6.57847,10.81783 -14.2539,20.42049 -23.98997,30.01363 -10.85405,10.6947 -22.57259,19.6902 -37.14731,28.51537 l -2.964655,1.79513 -3.929636,-0.003 c -6.556399,-0.006 -15.797599,-0.41337 -21.396961,-0.94372 l -2.154887,-0.20411 2.474874,-1.30818 c 36.098805,-19.08131 58.483645,-37.64919 74.076505,-61.4453 2.95588,-4.51094 7.68272,-12.68288 7.68272,-13.28218 0,-0.0957 -0.66546,-1.28288 -1.4788,-2.63826 -1.99316,-3.32149 -3.47037,-6.08665 -6.55782,-12.27545 -4.29973,-8.61881 -6.3214,-12.39719 -6.58015,-12.29789 -0.12786,0.0491 -0.23248,-0.0276 -0.23248,-0.17041 0,-0.21293 -0.35761,-0.25958 -1.98873,-0.25941 -1.719,1.8e-4 -5.5204,0.3252 -7.33543,0.62717 l -0.57371,0.0954 1.47859,-2.26176 c 3.4164,-5.22599 6.79814,-11.21416 9.76302,-17.28778 1.89004,-3.87175 4.48293,-9.764261 4.49603,-10.217485 0.003,-0.116786 0.38821,0.821806 0.85519,2.08576 2.66576,7.215325 6.80738,13.513575 14.01774,21.317035 l 2.06275,2.23243 -1.44403,0.44647 c -0.79422,0.24556 -2.74022,0.71309 -4.32445,1.03895 -2.73188,0.56192 -2.89327,0.61826 -3.12993,1.09266 -0.24155,0.4842 -0.2136,0.55212 0.87403,2.12395 1.27932,1.84888 3.6697,6.00711 5.48987,9.55004 0.68059,1.32476 1.28538,2.41012 1.34398,2.41191 0.0586,0.002 0.51175,-0.89168 1.007,-1.98548 2.84752,-6.28899 4.94949,-12.7654 8.07543,-24.88132 2.51122,-9.733296 3.42898,-13.186312 4.36171,-16.410636 0.4875,-1.685193 0.85978,-3.083818 0.82729,-3.108053 -0.0325,-0.02424 -0.53636,-0.230462 -1.11973,-0.458279 -1.02397,-0.399888 -7.54536,-3.33139 -7.65559,-3.441347 -0.0298,-0.02973 0.40772,-0.473567 0.97228,-0.986296 2.14249,-1.945809 6.89319,-6.870084 9.10066,-9.433171 2.83715,-3.294204 6.46458,-8.094589 8.45497,-11.18896 0.82613,-1.284341 1.54668,-2.338372 1.60122,-2.342291 0.0545,-0.0039 0.20301,0.410509 0.32993,0.920952 1.39569,5.612946 3.95197,11.368563 10.20088,22.967936 0.71635,1.329706 1.30245,2.495076 1.30245,2.589712 0,0.374331 -4.26589,1.089326 -9.08574,1.522839 -1.64282,0.147761 -3.00284,0.290129 -3.02226,0.316375 -0.0194,0.02625 -0.21192,0.962539 -0.42779,2.080652 -2.95197,15.290037 -8.70221,35.931227 -15.32478,55.010177 l -1.39196,4.01011 2.11931,3.14889 c 21.10972,31.36487 50.11257,52.89573 90.22877,66.98315 0.5272,0.18513 0.98496,0.41721 1.01724,0.51573 0.1031,0.31453 -2.72063,3.89957 -4.41201,5.60154 -2.77994,2.79736 -8.4139,7.22041 -9.17512,7.20312 -0.22519,-0.005 -1.76181,-0.3579 -3.41467,-0.78395 z"
       id="path8427"
       inkscape:connector-curvature="0"
       transform="scale(0.26458333)" />
  </g>
</svg>
