<?xml version="1.0" encoding="UTF-8" standalone="no"?>
<svg
   xmlns:dc="http://purl.org/dc/elements/1.1/"
   xmlns:cc="http://creativecommons.org/ns#"
   xmlns:rdf="http://www.w3.org/1999/02/22-rdf-syntax-ns#"
   xmlns:svg="http://www.w3.org/2000/svg"
   xmlns="http://www.w3.org/2000/svg"
   xmlns:sodipodi="http://sodipodi.sourceforge.net/DTD/sodipodi-0.dtd"
   xmlns:inkscape="http://www.inkscape.org/namespaces/inkscape"
   x="0"
   y="0"
   width="256"
   height="256"
   version="1.1"
   id="svg2199"
   sodipodi:docname="03.svg"
   inkscape:version="0.92.2 (5c3e80d, 2017-08-06)">
  <metadata
     id="metadata2203">
    <rdf:RDF>
      <cc:Work
         rdf:about="">
        <dc:format>image/svg+xml</dc:format>
        <dc:type
           rdf:resource="http://purl.org/dc/dcmitype/StillImage" />
      </cc:Work>
    </rdf:RDF>
  </metadata>
  <sodipodi:namedview
     pagecolor="#ffffff"
     bordercolor="#666666"
     borderopacity="1"
     objecttolerance="10"
     gridtolerance="10"
     guidetolerance="10"
     inkscape:pageopacity="0"
     inkscape:pageshadow="2"
     inkscape:window-width="1920"
     inkscape:window-height="1002"
     id="namedview2201"
     showgrid="false"
     inkscape:zoom="0.921875"
     inkscape:cx="128"
     inkscape:cy="128"
     inkscape:window-x="-9"
     inkscape:window-y="-9"
     inkscape:window-maximized="1"
     inkscape:current-layer="svg2199" />
  <defs
     id="defs2185">
    <linearGradient
       x1="16.99393"
       y1="11.68966"
       x2="52.21926"
       y2="57.52354"
       gradientUnits="userSpaceOnUse"
       id="color-1">
      <stop
         offset="0"
         stop-color="#000000"
         stop-opacity="0.7"
         id="stop2171" />
      <stop
         offset="1"
         stop-color="#000000"
         stop-opacity="0"
         id="stop2173" />
    </linearGradient>
    <filter
       id="dropshadow">
      <feColorMatrix
         type="matrix"
         values="0 0 0 0 .05  0 0 0 0 .15  0 0 0 0 .1  0 0 0 .8 0"
         id="feColorMatrix2176" />
      <feOffset
         dx="0"
         dy="1"
         id="feOffset2178" />
      <feGaussianBlur
         stdDeviation="1"
         id="feGaussianBlur2180"
         result="result1" />
      <feComposite
         in="SourceGraphic"
         in2="result1"
         id="feComposite2182" />
    </filter>
  </defs>
  <g
     transform="matrix(5.0677965,0,0,5.0677965,4.8813569,4.8813569)"
     id="g2197">
    <g
       stroke-width="none"
       stroke-miterlimit="none"
       font-weight="none"
       font-size="none"
       mix-blend-mode="normal"
       id="g2195"
       style="font-family:none;text-anchor:start;mix-blend-mode:normal;fill:none;stroke:none;stroke-linecap:butt;stroke-linejoin:miter;stroke-dasharray:none;stroke-dashoffset:0">
      <g
         id="svg2898"
         stroke-miterlimit="4"
         font-weight="400"
         font-size="14"
         style="font-weight:400;font-size:14px;font-family:'Open Sans', sans-serif;fill:#000000;stroke:none;stroke-width:1;stroke-miterlimit:4">
        <g
           id="layer1" />
      </g>
      <path
         d="M 3,24 C 3,12.40202 12.40202,3 24,3 35.59798,3 45,12.40202 45,24 45,35.59798 35.59798,45 24,45 12.40202,45 3,35.59798 3,24 Z"
         stroke-miterlimit="10"
         font-weight="normal"
         font-size="12"
         id="path2189"
         inkscape:connector-curvature="0"
         style="font-weight:normal;font-size:12px;font-family:sans-serif;fill:#512da8;stroke-width:1;stroke-miterlimit:10;filter:url(#dropshadow)" />
      <path
         d="m 17.67561,21.46404 c 0.65748,-2.66574 1.64652,-5.22744 3.23301,-8.3738 l 7.42087,7.42087 c 0,-10e-6 -10e-6,-2e-5 -10e-6,-2e-5 l -7.42085,-7.42085 0.70621,-1.40057 0.17443,0.16704 c 0.005,0.0047 0.01072,0.0104 0.01724,0.01693 l 0.0036,0.0036 c -0.0012,-0.0012 -0.0024,-0.0024 -0.0036,-0.0036 l 21.15769,21.15769 c -0.0086,0.01811 -0.01731,0.03621 -0.026,0.05429 0,0 -0.1345,-0.1345 -0.1345,-0.1345 v 10e-6 l 0.1345,0.1345 C 40.3467,38.4776 35.52028,42.59219 29.65986,44.22847 l -9.98521,-9.98521 c -0.36026,-0.36026 -0.68857,-0.76142 -0.97844,-1.19912 -1.8444,-2.78503 -2.1986,-6.80391 -1.0206,-11.58009 l 12.10484,12.10484 c 0,0 0,0 0,-1e-5 z"
         stroke-miterlimit="10"
         font-weight="normal"
         font-size="12"
         id="path2191"
         style="font-weight:normal;font-size:12px;font-family:sans-serif;fill:url(#color-1);stroke-width:1;stroke-miterlimit:10"
         inkscape:connector-curvature="0" />
      <path
         d="m 23.43919,36.23586 c -1.90776,-0.3404 -3.61593,-1.4899 -4.74298,-3.19173 -1.8444,-2.78502 -2.1986,-6.80391 -1.0206,-11.58009 0.65748,-2.66573 1.64652,-5.22744 3.23301,-8.3738 l 0.70621,-1.40057 0.17443,0.16704 c 0.09594,0.09187 0.49509,0.52701 0.88701,0.96699 5.34922,6.0051 8.18813,11.45012 8.32433,15.96601 0.07332,2.43105 -0.59121,4.31735 -2.02208,5.7397 -0.91147,0.90605 -2.0414,1.48676 -3.33016,1.7115 -0.54282,0.09466 -1.66473,0.0921 -2.20917,-0.005 z"
         stroke-miterlimit="10"
         font-weight="normal"
         font-size="12"
         id="path2193"
         inkscape:connector-curvature="0"
         style="font-weight:normal;font-size:12px;font-family:sans-serif;fill:#ffffff;stroke-width:0;stroke-miterlimit:10" />
    </g>
  </g>
</svg>
