<?xml version="1.0" encoding="UTF-8" standalone="no"?>
<svg
   xmlns:dc="http://purl.org/dc/elements/1.1/"
   xmlns:cc="http://creativecommons.org/ns#"
   xmlns:rdf="http://www.w3.org/1999/02/22-rdf-syntax-ns#"
   xmlns:svg="http://www.w3.org/2000/svg"
   xmlns="http://www.w3.org/2000/svg"
   xmlns:sodipodi="http://sodipodi.sourceforge.net/DTD/sodipodi-0.dtd"
   xmlns:inkscape="http://www.inkscape.org/namespaces/inkscape"
   x="0"
   y="0"
   width="256"
   height="256"
   version="1.1"
   id="svg2810"
   sodipodi:docname="04.svg"
   inkscape:version="0.92.2 (5c3e80d, 2017-08-06)">
  <metadata
     id="metadata2814">
    <rdf:RDF>
      <cc:Work
         rdf:about="">
        <dc:format>image/svg+xml</dc:format>
        <dc:type
           rdf:resource="http://purl.org/dc/dcmitype/StillImage" />
      </cc:Work>
    </rdf:RDF>
  </metadata>
  <sodipodi:namedview
     pagecolor="#ffffff"
     bordercolor="#666666"
     borderopacity="1"
     objecttolerance="10"
     gridtolerance="10"
     guidetolerance="10"
     inkscape:pageopacity="0"
     inkscape:pageshadow="2"
     inkscape:window-width="1920"
     inkscape:window-height="1002"
     id="namedview2812"
     showgrid="false"
     inkscape:zoom="0.921875"
     inkscape:cx="128"
     inkscape:cy="128"
     inkscape:window-x="-9"
     inkscape:window-y="-9"
     inkscape:window-maximized="1"
     inkscape:current-layer="svg2810" />
  <defs
     id="defs2796">
    <linearGradient
       x1="9.8461"
       y1="10.9845"
       x2="62.54393"
       y2="61.40553"
       gradientUnits="userSpaceOnUse"
       id="color-1">
      <stop
         offset="0"
         stop-color="#000000"
         stop-opacity="0.21"
         id="stop2782" />
      <stop
         offset="1"
         stop-color="#000000"
         stop-opacity="0"
         id="stop2784" />
    </linearGradient>
    <filter
       id="dropshadow">
      <feColorMatrix
         type="matrix"
         values="0 0 0 0 .05  0 0 0 0 .15  0 0 0 0 .1  0 0 0 .8 0"
         id="feColorMatrix2787" />
      <feOffset
         dx="0"
         dy="1"
         id="feOffset2789" />
      <feGaussianBlur
         stdDeviation="1"
         id="feGaussianBlur2791"
         result="result1" />
      <feComposite
         in="SourceGraphic"
         in2="result1"
         id="feComposite2793" />
    </filter>
  </defs>
  <g
     transform="matrix(5.1754102,0,0,5.1754102,5.0059134,5.0059134)"
     id="g2808">
    <g
       stroke-width="none"
       stroke-miterlimit="none"
       font-weight="none"
       font-size="none"
       mix-blend-mode="normal"
       id="g2806"
       style="font-family:none;text-anchor:start;mix-blend-mode:normal;fill:none;stroke:none;stroke-linecap:butt;stroke-linejoin:miter;stroke-dasharray:none;stroke-dashoffset:0">
      <g
         id="svg821"
         stroke-miterlimit="4"
         font-weight="400"
         font-size="14"
         style="font-weight:400;font-size:14px;font-family:'Open Sans', sans-serif;fill:#000000;stroke:none;stroke-width:1;stroke-miterlimit:4">
        <g
           id="layer4" />
      </g>
      <path
         d="M 3,24 C 3,12.40202 12.40202,3 24,3 35.59798,3 45,12.40202 45,24 45,35.59798 35.59798,45 24,45 12.40202,45 3,35.59798 3,24 Z"
         stroke-miterlimit="10"
         font-weight="normal"
         font-size="12"
         id="path2800"
         inkscape:connector-curvature="0"
         style="font-weight:normal;font-size:12px;font-family:sans-serif;fill:#29b6f6;stroke-width:1;stroke-miterlimit:10;filter:url(#dropshadow)" />
      <path
         d="m 32.71972,35.83751 -10.7649,-10.7649 0.24571,-0.45074 -0.28567,-0.48906 -3.41347,-3.41347 c -10e-6,-10e-6 -2e-5,-10e-6 -2e-5,-2e-5 0,0 10e-6,10e-6 2e-5,2e-5 10e-6,10e-6 3e-5,2e-5 5e-5,3e-5 l -7e-5,-7e-5 c -0.0055,-0.0055 0.12952,-0.27921 0.30043,-0.60887 0.39297,-0.75799 0.76146,-1.57095 1.47301,-3.24977 l -10e-6,-10e-6 c 0.30993,-0.73123 0.58196,-1.36401 0.60453,-1.40619 l 10e-6,1e-5 c 0.01425,-0.02663 0.0271,-0.03669 0.04859,-0.0152 l 3.49988,3.49988 c 0.07806,-0.26995 0.16053,-0.56118 0.24858,-0.87732 0.16603,-0.59615 0.38029,-1.3567 0.48509,-1.72216 L 23.97081,15.149 v 0 c -3e-5,-3e-5 -5e-5,-5e-5 -8e-5,-8e-5 -0.03354,-0.03354 0.02867,-0.1159 0.3266,-0.45304 0.61994,-0.70157 1.13436,-1.36887 2.25985,-2.93141 0.30866,-0.42853 0.57389,-0.77914 0.58939,-0.77914 0,0 0.02954,0.02954 0.02954,0.02954 0,-10e-6 0,-10e-6 -10e-6,-2e-5 l -0.02953,-0.02953 c 0.0061,0 0.01014,-0.003 0.01545,0.0023 l 17.38259,17.38259 c -2.01099,9.50046 -10.44524,16.62975 -20.54463,16.62975 -1.97599,0 -3.88823,-0.27291 -5.7011,-0.7831 0,0 -8.44978,-8.44978 -8.44978,-8.44978 -0.02111,-0.02111 0.0651,-0.0679 0.35998,-0.22382 0,0 0.26797,0.26797 0.26797,0.26797 0,0 10e-6,0 10e-6,0 L 10.20909,35.54328 C 16.19064,32.38039 19.65415,29.29286 21.9548,25.0726 l 10.76488,10.76488 c 1e-5,0 2e-5,1e-5 2e-5,1e-5 z"
         stroke-miterlimit="10"
         font-weight="normal"
         font-size="12"
         id="path2802"
         style="font-weight:normal;font-size:12px;font-family:sans-serif;fill:url(#color-1);stroke-width:1;stroke-miterlimit:10"
         inkscape:connector-curvature="0" />
      <path
         d="m 24.08629,27.81497 c -0.25637,-0.37308 -0.48973,-0.72369 -0.51859,-0.77915 -0.02886,-0.05546 -0.066,-0.10083 -0.08253,-0.10083 -0.01653,0 -0.11753,0.14437 -0.22444,0.32083 -1.20952,1.99624 -3.04189,4.06618 -5.16056,5.82966 -0.98863,0.82288 -2.49147,1.8846 -3.7232,2.63035 L 13.9083,35.99958 13.49699,35.95892 C 12.772,35.88726 12.0471,35.84818 11.03239,35.82605 10.4879,35.81417 9.98544,35.79566 9.9158,35.7849 9.79256,35.76586 9.80036,35.75943 10.20913,35.54329 16.19068,32.3804 19.65419,29.29286 21.95484,25.07261 l 0.24572,-0.45074 -0.31497,-0.53924 c -0.17323,-0.29658 -0.64641,-1.19707 -1.05151,-2.00109 l -0.73653,-1.46185 -0.371,0.02676 c -0.72283,0.05213 -1.21446,0.08137 -1.22513,0.07288 -0.0059,-0.0047 0.12924,-0.27874 0.3004,-0.60889 0.39297,-0.75799 0.76146,-1.57095 1.47301,-3.24977 0.30993,-0.73123 0.58197,-1.36402 0.60453,-1.40618 0.03658,-0.06835 0.06392,-0.02756 0.2521,0.3762 0.61056,1.31002 1.50767,2.97294 2.08129,3.85799 0.12899,0.19902 0.22962,0.3653 0.22361,0.3695 -0.006,0.0042 -0.32028,0.08708 -0.6984,0.18417 -0.37812,0.09709 -0.68748,0.18232 -0.68748,0.1894 0,0.0071 0.12966,0.23161 0.28814,0.49895 0.15847,0.26734 0.4042,0.69173 0.54606,0.94309 0.14186,0.25136 0.27366,0.46226 0.29288,0.46867 0.03617,0.01206 0.22053,-0.36765 0.4072,-0.83865 0.32098,-0.80989 0.62964,-1.78307 1.09166,-3.44195 0.17131,-0.61507 0.39394,-1.40516 0.49474,-1.75576 0.1008,-0.3506 0.17581,-0.65692 0.16668,-0.6807 -0.0091,-0.02379 -0.3029,-0.13134 -0.65284,-0.23902 -0.34993,-0.10767 -0.66559,-0.21056 -0.70147,-0.22864 -0.05639,-0.02841 -0.01386,-0.091 0.31383,-0.46183 0.61994,-0.70157 1.13436,-1.36887 2.25984,-2.93141 0.30867,-0.42853 0.57389,-0.77915 0.58939,-0.77915 0.03241,0 0.008,-0.08546 0.41958,1.46663 0.39523,1.49028 0.60394,2.19541 0.832,2.81092 0.09836,0.26545 0.17883,0.49232 0.17883,0.50416 0,0.01183 -0.35377,0.02152 -0.78615,0.02152 -0.43238,0 -0.79515,0.01456 -0.80615,0.03236 -0.011,0.0178 -0.10171,0.40966 -0.20157,0.87081 -0.49183,2.27118 -1.04201,4.24579 -1.87623,6.73376 l -0.43994,1.31207 0.35522,0.52123 c 2.28068,3.34652 5.09289,5.85404 8.76431,7.81477 1.17218,0.62601 2.86738,1.36875 4.14664,1.81684 0.39877,0.13968 0.44412,0.16416 0.41273,0.22281 -0.05711,0.10672 -1.27221,1.32139 -1.62596,1.62539 -0.23394,0.20104 -0.35231,0.27877 -0.42166,0.27687 -0.05303,-0.0015 -0.33566,-0.06628 -0.62807,-0.14408 -4.19161,-1.11511 -8.01945,-4.16034 -11.38389,-9.05642 z"
         stroke-miterlimit="10"
         font-weight="normal"
         font-size="12"
         id="path2804"
         inkscape:connector-curvature="0"
         style="font-weight:normal;font-size:12px;font-family:sans-serif;fill:#ffffff;stroke-width:0;stroke-miterlimit:10" />
    </g>
  </g>
</svg>
