<?xml version="1.0" encoding="UTF-8" standalone="no"?>
<svg
   xmlns:dc="http://purl.org/dc/elements/1.1/"
   xmlns:cc="http://creativecommons.org/ns#"
   xmlns:rdf="http://www.w3.org/1999/02/22-rdf-syntax-ns#"
   xmlns:svg="http://www.w3.org/2000/svg"
   xmlns="http://www.w3.org/2000/svg"
   xmlns:sodipodi="http://sodipodi.sourceforge.net/DTD/sodipodi-0.dtd"
   xmlns:inkscape="http://www.inkscape.org/namespaces/inkscape"
   x="0"
   y="0"
   width="256"
   height="256"
   version="1.1"
   id="svg3440"
   sodipodi:docname="05.svg"
   inkscape:version="0.92.2 (5c3e80d, 2017-08-06)">
  <metadata
     id="metadata3444">
    <rdf:RDF>
      <cc:Work
         rdf:about="">
        <dc:format>image/svg+xml</dc:format>
        <dc:type
           rdf:resource="http://purl.org/dc/dcmitype/StillImage" />
      </cc:Work>
    </rdf:RDF>
  </metadata>
  <sodipodi:namedview
     pagecolor="#ffffff"
     bordercolor="#666666"
     borderopacity="1"
     objecttolerance="10"
     gridtolerance="10"
     guidetolerance="10"
     inkscape:pageopacity="0"
     inkscape:pageshadow="2"
     inkscape:window-width="747"
     inkscape:window-height="480"
     id="namedview3442"
     showgrid="false"
     inkscape:zoom="0.921875"
     inkscape:cx="285.21967"
     inkscape:cy="128"
     inkscape:window-x="0"
     inkscape:window-y="0"
     inkscape:window-maximized="0"
     inkscape:current-layer="svg3440" />
  <defs
     id="defs3426">
    <linearGradient
       x1="12.47957"
       y1="11.68966"
       x2="56.73363"
       y2="57.52354"
       gradientUnits="userSpaceOnUse"
       id="color-1">
      <stop
         offset="0"
         stop-color="#000000"
         stop-opacity="0.7"
         id="stop3412" />
      <stop
         offset="1"
         stop-color="#000000"
         stop-opacity="0"
         id="stop3414" />
    </linearGradient>
    <filter
       id="dropshadow">
      <feColorMatrix
         type="matrix"
         values="0 0 0 0 .05  0 0 0 0 .15  0 0 0 0 .1  0 0 0 .8 0"
         id="feColorMatrix3417" />
      <feOffset
         dx="0"
         dy="1"
         id="feOffset3419" />
      <feGaussianBlur
         stdDeviation="1"
         id="feGaussianBlur3421"
         result="result1" />
      <feComposite
         in="SourceGraphic"
         in2="result1"
         id="feComposite3423" />
    </filter>
  </defs>
  <g
     transform="matrix(5.0893192,0,0,5.0893192,4.9071842,4.9071842)"
     id="g3438">
    <g
       stroke-width="none"
       stroke-miterlimit="none"
       font-weight="none"
       font-size="none"
       mix-blend-mode="normal"
       id="g3436"
       style="font-family:none;text-anchor:start;mix-blend-mode:normal;fill:none;stroke:none;stroke-linecap:butt;stroke-linejoin:miter;stroke-dasharray:none;stroke-dashoffset:0">
      <g
         stroke-miterlimit="4"
         font-weight="400"
         font-size="14"
         id="g3428"
         style="font-weight:400;font-size:14px;font-family:'Open Sans', sans-serif;fill:#000000;stroke:none;stroke-width:1;stroke-miterlimit:4" />
      <path
         d="M 3,24 C 3,12.40202 12.40202,3 24,3 35.59798,3 45,12.40202 45,24 45,35.59798 35.59798,45 24,45 12.40202,45 3,35.59798 3,24 Z"
         stroke-miterlimit="10"
         font-weight="normal"
         font-size="12"
         id="path3430"
         inkscape:connector-curvature="0"
         style="font-weight:normal;font-size:12px;font-family:sans-serif;fill:#512da8;stroke-width:1;stroke-miterlimit:10;filter:url(#dropshadow)" />
      <path
         d="m 25.38774,14.90617 c 0.33728,0.1126 0.60205,0.29527 0.80892,0.50214 l 6.57795,6.57795 h 0.234 l -7.85529,-7.85529 c -0.25877,-0.25878 -0.41888,-0.61648 -0.41888,-1.01157 0,-0.78958 0.63918,-1.42974 1.42738,-1.42974 0.39395,0 0.7506,0.15974 1.00892,0.41806 0,0 17.16246,17.16246 17.16246,17.16246 C 41.99496,38.31738 33.77788,45 24,45 22.96384,45 21.94521,44.92496 20.94924,44.78001 l -8.46967,-8.46967 v -5.72947 h 5.76033 v -2.86513 h 1.21737 c 0.06225,-0.17692 0.14174,-0.30046 0.14174,-0.30046 l 2.2647,-5.20808 c 0,0 -1.52708,-1.52708 -1.52708,-1.52708 -0.17117,-0.17117 -0.11956,-0.54366 -0.11956,-0.54366 0,0 0,-2.93765 0,-3.28621 0,-0.34879 0.47888,-0.62768 0.47888,-0.62768 l 3.29902,-1.52562 c 0.76566,-0.27892 1.39277,0.20922 1.39277,0.20922 z"
         stroke-miterlimit="10"
         font-weight="normal"
         font-size="12"
         id="path3432"
         style="font-weight:normal;font-size:12px;font-family:sans-serif;fill:url(#color-1);stroke-width:1;stroke-miterlimit:10"
         inkscape:connector-curvature="0" />
      <path
         d="m 35.52043,21.98626 v 5.72947 h -5.7603 v 2.86513 H 24.0002 v 2.86476 h -5.7603 v 2.86471 h -5.76033 v -5.72947 h 5.76033 v -2.86513 h 1.21737 c 0.06225,-0.17691 0.14174,-0.30046 0.14174,-0.30046 l 2.2895,-5.26512 v -2.51032 c 0,-1.01167 1.10518,-2.65006 1.10518,-2.65006 0.13935,-0.55798 -0.48734,-0.13954 -0.48734,-0.13954 l -0.55702,0.42712 c -0.5397,0.34879 -0.62689,0.54935 -0.62689,0.54935 l -0.03484,2.48415 c 0,0.20902 -0.73101,0.4535 -0.73101,0.4535 -0.42652,0 -0.33952,-0.62788 -0.33952,-0.62788 0,0 0,-2.93764 0,-3.28621 0,-0.34879 0.47888,-0.62768 0.47888,-0.62768 l 3.29902,-1.52562 c 0.76565,-0.27892 1.39277,0.20922 1.39277,0.20922 1.25339,0.41846 1.50552,1.80451 1.50552,1.80451 -0.06928,1.25536 1.39274,2.2316 1.39274,2.2316 l 1.25341,0.69758 c 0.41764,0.13935 0.13935,0.76683 0.13935,0.76683 -0.13935,0.41846 -0.9054,0.13935 -0.9054,0.13935 l -1.39277,-0.52278 c -1.18374,-0.62748 -1.11403,-1.22033 -1.11403,-1.22033 -0.27873,-0.41843 -0.6964,0.06928 -0.6964,0.06928 l -0.34838,1.95294 v 0.69716 c 1.07158,1.21636 1.62553,2.43247 1.91101,3.32869 H 29.7601 V 21.98627 Z M 25.06708,24.851 23.96837,23.62342 c -0.3826,-0.38379 -0.83533,0.75839 -0.83533,0.75839 l -1.73555,3.33392 H 24.0002 V 24.85099 Z M 24.73444,13.1194 c 0,-0.78958 0.63918,-1.42974 1.42738,-1.42974 0.78862,0 1.4278,0.64016 1.4278,1.42974 0,0.78938 -0.63918,1.42954 -1.4278,1.42954 -0.78823,0 -1.42738,-0.64016 -1.42738,-1.42954 z"
         stroke-miterlimit="4"
         font-weight="400"
         font-size="14"
         id="path3434"
         inkscape:connector-curvature="0"
         style="font-weight:400;font-size:14px;font-family:'Open Sans', sans-serif;fill:#ffffff;stroke:none;stroke-width:0;stroke-miterlimit:4" />
    </g>
  </g>
</svg>
