<?xml version="1.0" encoding="UTF-8" standalone="no"?>
<svg
   xmlns:dc="http://purl.org/dc/elements/1.1/"
   xmlns:cc="http://creativecommons.org/ns#"
   xmlns:rdf="http://www.w3.org/1999/02/22-rdf-syntax-ns#"
   xmlns:svg="http://www.w3.org/2000/svg"
   xmlns="http://www.w3.org/2000/svg"
   xmlns:sodipodi="http://sodipodi.sourceforge.net/DTD/sodipodi-0.dtd"
   xmlns:inkscape="http://www.inkscape.org/namespaces/inkscape"
   x="0"
   y="0"
   width="256"
   height="256"
   version="1.1"
   id="svg4711"
   sodipodi:docname="07.svg"
   inkscape:version="0.92.2 (5c3e80d, 2017-08-06)">
  <metadata
     id="metadata4715">
    <rdf:RDF>
      <cc:Work
         rdf:about="">
        <dc:format>image/svg+xml</dc:format>
        <dc:type
           rdf:resource="http://purl.org/dc/dcmitype/StillImage" />
      </cc:Work>
    </rdf:RDF>
  </metadata>
  <sodipodi:namedview
     pagecolor="#ffffff"
     bordercolor="#666666"
     borderopacity="1"
     objecttolerance="10"
     gridtolerance="10"
     guidetolerance="10"
     inkscape:pageopacity="0"
     inkscape:pageshadow="2"
     inkscape:window-width="1920"
     inkscape:window-height="1002"
     id="namedview4713"
     showgrid="false"
     inkscape:zoom="2.6074563"
     inkscape:cx="31.185581"
     inkscape:cy="135.4348"
     inkscape:window-x="-9"
     inkscape:window-y="-9"
     inkscape:window-maximized="1"
     inkscape:current-layer="svg4711" />
  <defs
     id="defs4697">
    <linearGradient
       x1="10.48942"
       y1="11.67292"
       x2="60.79205"
       y2="59.60855"
       gradientUnits="userSpaceOnUse"
       id="color-1">
      <stop
         offset="0"
         stop-color="#000000"
         stop-opacity="0.16"
         id="stop4683" />
      <stop
         offset="1"
         stop-color="#000000"
         stop-opacity="0"
         id="stop4685" />
    </linearGradient>
    <filter
       id="dropshadow">
      <feColorMatrix
         type="matrix"
         values="0 0 0 0 .05  0 0 0 0 .15  0 0 0 0 .1  0 0 0 .8 0"
         id="feColorMatrix4688" />
      <feOffset
         dx="0"
         dy="1"
         id="feOffset4690" />
      <feGaussianBlur
         stdDeviation="1"
         id="feGaussianBlur4692"
         result="result1" />
      <feComposite
         in="SourceGraphic"
         in2="result1"
         id="feComposite4694" />
    </filter>
  </defs>
  <g
     transform="matrix(5.1167044,0,0,5.1167044,4.9354665,4.9354665)"
     id="g4709">
    <g
       stroke-width="none"
       stroke-miterlimit="none"
       font-weight="none"
       font-size="none"
       mix-blend-mode="normal"
       id="g4707"
       style="font-family:none;text-anchor:start;mix-blend-mode:normal;fill:none;stroke:none;stroke-linecap:butt;stroke-linejoin:miter;stroke-dasharray:none;stroke-dashoffset:0">
      <g
         id="svg821"
         stroke-miterlimit="4"
         font-weight="400"
         font-size="14"
         style="font-weight:400;font-size:14px;font-family:'Open Sans', sans-serif;fill:#000000;stroke:none;stroke-width:1;stroke-miterlimit:4">
        <g
           id="layer4" />
      </g>
      <path
         d="M 3,24 C 3,12.40202 12.40202,3 24,3 35.59798,3 45,12.40202 45,24 45,35.59798 35.59798,45 24,45 12.40202,45 3,35.59798 3,24 Z"
         stroke-miterlimit="10"
         font-weight="normal"
         font-size="12"
         id="path4701"
         inkscape:connector-curvature="0"
         style="font-weight:normal;font-size:12px;font-family:sans-serif;fill:#29b6f6;stroke-width:1;stroke-miterlimit:10;filter:url(#dropshadow)" />
      <path
         d="m 19.96727,44.61317 -9.47786,-9.47786 0.34481,-0.18153 c 0.58049,-0.30576 1.13374,-0.61028 1.66363,-0.91333 v 0 c 0,0 1.13599,-3.39475 1.13599,-3.39475 l -1.05458,-1.05458 c -0.10803,-0.10803 -0.09638,-0.33691 -0.09638,-0.33691 l -0.18806,-2.1486 c 0,0 0.79472,0.79472 0.79472,0.79472 0,0 0,-10e-6 0,-10e-6 0,0 -0.79471,-0.79471 -0.79471,-0.79471 -0.01995,-0.22805 0.27732,-0.43788 0.27732,-0.43788 l 2.06967,-1.18601 c 0,0 3.5732,3.5732 3.5732,3.5732 0,0 10e-6,0 10e-6,0 0,0 -3.57321,-3.57321 -3.57321,-3.57321 0.12115,-0.0566 0.23942,-0.08179 0.34862,-0.08681 0.32763,-0.01573 0.57368,0.1437 0.57368,0.1437 0.2794,0.06688 0.49306,0.20949 0.65387,0.3703 l 3.01471,3.01471 c 0.0012,-0.0012 0.0023,-0.0025 0.0035,-0.0038 L 15.30613,24.98978 C 15.15555,24.8392 15.05508,24.6367 15.03505,24.40784 l 0.85334,0.85334 c 0,0 1e-5,0 1e-5,0 l -0.85335,-0.85335 c -0.04516,-0.51623 0.33596,-0.97119 0.8513,-1.01631 0.28708,-0.02511 0.55526,0.08214 0.74438,0.27126 l 3.82124,3.82124 c 0.66436,-0.86499 1.24888,-1.77665 1.76126,-2.74416 l 0.11784,-0.22289 c 0,0 -0.19632,-0.32695 -0.19632,-0.32695 l -3.35165,-3.35165 0.15866,-0.29037 -10e-6,-10e-6 c 0.44145,-0.80867 0.81809,-1.63921 1.84406,-4.06615 0.17332,-0.40997 0.32303,-0.73671 0.33308,-0.72666 l 3.33819,3.33819 c 0.10851,-0.37501 0.22614,-0.79255 0.35596,-1.26195 0,0 0,0 0,0 0.10836,-0.3918 0.23904,-0.85724 0.32537,-1.15968 l -1.15559,-1.15559 c -0.02467,-0.02467 0.01464,-0.06848 0.22742,-0.29706 0.50571,-0.54327 1.0964,-1.29979 2.06641,-2.64662 v 0 c 0.60061,-0.83395 0.64142,-0.89676 0.71003,-0.89944 0,0 0.15152,0.15152 0.15152,0.15152 0,0 0,-10e-6 0,-10e-6 l -0.1515,-0.1515 c 0.0098,-3.8e-4 0.02028,5.5e-4 0.03292,5.5e-4 0,0 0.107,0.107 0.107,0.107 0,0 0,-10e-6 0,-10e-6 l -0.107,-0.107 c 0.04141,0 0.07603,0.0051 0.08287,0.01195 0,0 17.30174,17.30174 17.30174,17.30174 -2.23857,9.19046 -10.52468,16.01275 -20.40422,16.01275 -1.37934,0 -2.72763,-0.13298 -4.03273,-0.38683 z"
         stroke-miterlimit="10"
         font-weight="normal"
         font-size="12"
         id="path4703"
         style="font-weight:normal;font-size:12px;font-family:sans-serif;fill:url(#color-1);stroke-width:1;stroke-miterlimit:10"
         inkscape:connector-curvature="0" />
      <path
         d="m 27.0196,11.67355 c 0.04628,0 0.08409,0.0064 0.08409,0.01442 0,0.008 0.04911,0.19396 0.10913,0.41285 0.06003,0.21889 0.18245,0.68053 0.27215,1.02599 0.32193,1.23998 0.5986,2.15002 0.83549,2.74895 0.0488,0.12339 0.08872,0.2316 0.08872,0.24031 0,0.0087 -0.30769,0.01591 -0.68363,0.01606 -0.37594,1.5e-4 -0.72309,0.0069 -0.77154,0.01497 l -0.08818,0.01442 -0.04246,0.22534 c -0.0853,0.45164 -0.36887,1.69616 -0.5462,2.39761 -0.43214,1.70942 -1.00804,3.61983 -1.59886,5.30305 l -0.18588,0.52905 0.23786,0.3576 c 2.84808,4.28573 6.77822,7.25958 12.22619,9.25108 0.30482,0.11143 0.55409,0.21378 0.55409,0.22751 0,0.04441 -0.70443,0.79122 -1.05974,1.12342 -0.35632,0.33315 -0.83629,0.75589 -0.85236,0.75085 -0.005,-0.0016 -0.03142,-0.0076 -0.05851,-0.01361 -3.4276,-0.76223 -6.55484,-2.7996 -9.42063,-6.13718 -0.80084,-0.93269 -1.85262,-2.3429 -2.41449,-3.23746 -0.07431,-0.11831 -0.14254,-0.21527 -0.15159,-0.21527 -0.009,0 -0.08601,0.11369 -0.17091,0.25255 -0.60439,0.98857 -1.42099,2.08402 -2.26208,3.03389 -0.3927,0.44349 -1.41408,1.46415 -1.86692,1.86584 -1.35893,1.2054 -2.75471,2.22974 -4.36741,3.20507 l -0.43135,0.26072 -0.172,-0.0215 c -0.5673,-0.0706 -1.48106,-0.12251 -2.76256,-0.15703 l -1.03062,-0.02776 0.34481,-0.18152 c 0.58049,-0.30576 1.13374,-0.61027 1.66363,-0.91332 l 1.19309,-3.56539 -0.14369,-1.64132 c -0.05787,-0.66144 0.57096,-1.7959 0.57096,-1.7959 0.05919,-0.37275 -0.32658,-0.06341 -0.32658,-0.06341 l -0.33991,0.31134 c -0.3329,0.25892 -0.37828,0.39488 -0.37828,0.39488 l 0.1192,1.62608 c 0.01196,0.13666 -0.45204,0.33855 -0.45204,0.33855 -0.27886,0.02439 -0.25772,-0.39107 -0.25772,-0.39107 l -0.18805,-2.1486 c -0.01995,-0.22805 0.27732,-0.43788 0.27732,-0.43788 l 2.06967,-1.18601 c 0.12116,-0.0566 0.23942,-0.08179 0.34862,-0.08682 0.32763,-0.01573 0.57368,0.14369 0.57368,0.14369 0.84342,0.20191 1.08777,1.09376 1.08777,1.09376 0.02651,0.82474 1.03797,1.37924 1.03797,1.37924 l 0.85944,0.38454 c 0.28103,0.06721 0.13498,0.4934 0.13498,0.4934 -0.06717,0.28157 -0.58375,0.14288 -0.58375,0.14288 l -0.94054,-0.26208 c -0.80984,-0.34254 -0.79821,-0.73425 -0.79821,-0.73425 -0.20617,-0.25765 -0.45149,0.08518 -0.45149,0.08518 l -0.11593,1.29678 0.03973,0.45584 c 0.44381,0.42295 0.77369,0.85454 1.01973,1.25378 2.32487,-1.87341 4.07039,-3.95384 5.35938,-6.38782 l 0.11784,-0.22289 -0.22126,-0.36849 c -0.28784,-0.47897 -0.55153,-0.97818 -1.17486,-2.2248 -0.2802,-0.56038 -0.53511,-1.05965 -0.56661,-1.10954 l -0.05742,-0.09062 -0.20602,0.01769 c -0.11334,0.0099 -0.39454,0.02997 -0.62485,0.04463 -0.23031,0.01467 -0.48141,0.03262 -0.5579,0.03973 l -0.13907,0.01279 0.15866,-0.29038 c 0.44145,-0.80867 0.81808,-1.63922 1.84406,-4.06614 0.17349,-0.41038 0.32333,-0.73736 0.33311,-0.72663 0.0098,0.01073 0.16304,0.32339 0.34046,0.69479 0.6013,1.25879 1.34455,2.61869 1.91455,3.50253 l 0.15268,0.23649 -0.6439,0.16737 c -0.35415,0.09201 -0.65344,0.17579 -0.66513,0.18615 -0.01168,0.01035 0.05039,0.13346 0.13798,0.27351 0.08759,0.14005 0.31329,0.52884 0.50157,0.86407 0.18827,0.33522 0.36045,0.63365 0.38264,0.66322 0.03964,0.05283 0.042,0.05033 0.13145,-0.14152 0.43595,-0.93501 0.7808,-1.98023 1.44183,-4.3704 0.13676,-0.49448 0.30907,-1.1063 0.38291,-1.35964 0.07383,-0.25334 0.13417,-0.47072 0.13417,-0.48306 0,-0.03192 -0.18626,-0.09893 -0.76364,-0.27514 -0.27773,-0.08476 -0.53045,-0.16735 -0.56171,-0.18343 -0.05543,-0.02851 -0.05039,-0.03621 0.20547,-0.31106 0.50572,-0.54327 1.0964,-1.29978 2.06641,-2.64663 0.60061,-0.83394 0.64142,-0.89675 0.71003,-0.89944 0.0098,-3.8e-4 0.02028,5.4e-4 0.03293,5.4e-4 z M 15.88636,23.39153 c 0.51561,-0.04512 0.97022,0.33676 1.01538,0.85301 0.04515,0.5161 -0.33623,0.97124 -0.85184,1.01636 -0.51535,0.0451 -0.96969,-0.33694 -1.01485,-0.85306 -0.04516,-0.51623 0.33596,-0.97119 0.8513,-1.01631 z m -1.25433,8.47149 -0.4934,1.19173 c 0.59578,-0.37676 1.14808,-0.74967 1.6552,-1.11716 l -0.65887,-0.61832 c -0.03401,-0.02863 -0.06753,-0.04167 -0.09988,-0.04246 -0.22643,-0.0055 -0.40305,0.5862 -0.40305,0.5862 z"
         stroke-miterlimit="10"
         font-weight="normal"
         font-size="12"
         id="path4705"
         inkscape:connector-curvature="0"
         style="font-weight:normal;font-size:12px;font-family:sans-serif;fill:#ffffff;stroke-width:0;stroke-miterlimit:10" />
    </g>
  </g>
</svg>
